<svg width="124" height="32" viewBox="0 0 124 32" fill="none" xmlns="http://www.w3.org/2000/svg">
    <path d="M25.5734 16.9109C25.5579 14.2879 26.7515 12.3111 29.1618 10.8534C27.8137 8.93042 25.7742 7.87277 23.0858 7.66893C20.5403 7.46894 17.7554 9.1458 16.7356 9.1458C15.6579 9.1458 13.1936 7.73816 11.2545 7.73816C7.25279 7.7997 3 10.915 3 17.2532C3 19.1262 3.34378 21.0607 4.03133 23.053C4.95064 25.6759 8.26481 32.1026 11.7219 31.9988C13.5296 31.9565 14.8082 30.7219 17.1605 30.7219C19.4433 30.7219 20.6253 31.9988 22.6416 31.9988C26.1296 31.9488 29.127 26.1067 30 23.476C25.3223 21.2799 25.5734 17.0455 25.5734 16.9109ZM21.5137 5.18057C23.4721 2.86527 23.2944 0.757663 23.2365 0C21.506 0.0999961 19.5051 1.17303 18.3657 2.49221C17.1103 3.90754 16.3725 5.65747 16.5309 7.63047C18.4004 7.77278 20.1077 6.81512 21.5137 5.18057Z" fill="#333132"/>
    <path d="M48.59 15.4929H48.626L50.768 21.4869H46.412L48.59 15.4929ZM42.668 26.7969H44.432L45.872 22.9269H51.308L52.712 26.7969H54.602L49.58 13.9449H47.69L42.668 26.7969Z" fill="#333132"/>
    <path d="M55.6718 30.3609H57.2018V25.5549H57.2378C57.9038 26.6529 59.3078 27.0129 60.2438 27.0129C63.0878 27.0129 64.4918 24.8169 64.4918 22.1709C64.4918 19.5429 63.0698 17.2749 60.2078 17.2749C58.9118 17.2749 57.7418 17.7249 57.2378 18.7509H57.2018V17.4909H55.6718V30.3609ZM62.8718 22.0629C62.8718 23.8809 62.1698 25.6629 60.0818 25.6629C57.9758 25.6629 57.1478 23.9529 57.1478 22.1349C57.1478 20.4069 57.9218 18.6249 59.9918 18.6249C61.9718 18.6249 62.8718 20.3169 62.8718 22.0629Z" fill="#333132"/>
    <path d="M66.3418 30.3609H67.8718V25.5549H67.9078C68.5738 26.6529 69.9778 27.0129 70.9138 27.0129C73.7578 27.0129 75.1618 24.8169 75.1618 22.1709C75.1618 19.5429 73.7398 17.2749 70.8778 17.2749C69.5818 17.2749 68.4118 17.7249 67.9078 18.7509H67.8718V17.4909H66.3418V30.3609ZM73.5418 22.0629C73.5418 23.8809 72.8398 25.6629 70.7518 25.6629C68.6458 25.6629 67.8178 23.9529 67.8178 22.1349C67.8178 20.4069 68.5918 18.6249 70.6618 18.6249C72.6418 18.6249 73.5418 20.3169 73.5418 22.0629Z" fill="#333132"/>
    <path d="M91.2735 17.7069C91.1835 14.8809 89.1674 13.6389 86.5395 13.6389C84.1814 13.6389 81.8775 14.8089 81.8775 17.4009C81.8775 22.1169 90.1035 19.7949 90.1035 23.3229C90.1035 25.1769 88.3935 25.6629 86.8455 25.6629C84.9015 25.6629 83.1015 24.7269 83.1015 22.5669H81.4815C81.4815 25.6809 83.9115 27.1029 86.7915 27.1029C89.1315 27.1029 91.8135 26.0049 91.8135 23.2689C91.8135 18.2109 83.5875 20.4429 83.5875 17.2749C83.5875 15.6009 85.0095 15.0789 86.4675 15.0789C88.2495 15.0789 89.4555 15.8529 89.6535 17.7069H91.2735Z" fill="#333132"/>
    <path d="M95.7633 14.7009H94.2333V17.4909H92.6493V18.8409H94.2333V24.7629C94.2333 26.4729 94.8633 26.7969 96.4473 26.7969H97.6173V25.4469H96.9153C95.9613 25.4469 95.7633 25.3389 95.7633 24.6189V18.8409H97.6173V17.4909H95.7633V14.7009Z" fill="#333132"/>
    <path d="M100.433 22.1529C100.433 19.9029 101.729 18.6249 103.331 18.6249C104.933 18.6249 106.229 19.9029 106.229 22.1529C106.229 24.4029 104.933 25.6629 103.331 25.6629C101.729 25.6629 100.433 24.4029 100.433 22.1529ZM98.8131 22.1529C98.8131 24.8709 100.379 27.0129 103.331 27.0129C106.283 27.0129 107.849 24.8709 107.849 22.1529C107.849 19.4169 106.283 17.2749 103.331 17.2749C100.379 17.2749 98.8131 19.4169 98.8131 22.1529Z" fill="#333132"/>
    <path d="M109.599 26.7969H111.129V22.6569C111.129 20.2809 112.029 18.8949 114.495 18.8949V17.2749C112.839 17.2209 111.813 17.9409 111.075 19.4529H111.039V17.4909H109.599V26.7969Z" fill="#333132"/>
    <path d="M116.763 21.2529C116.853 19.8129 117.843 18.6249 119.427 18.6249C120.957 18.6249 122.019 19.7949 122.109 21.2529H116.763ZM122.073 23.8449C121.803 25.0689 120.939 25.6629 119.661 25.6629C117.627 25.6629 116.709 24.2229 116.763 22.6029H123.729C123.819 20.3529 122.811 17.2749 119.517 17.2749C116.979 17.2749 115.143 19.3089 115.143 22.1169C115.233 24.9429 116.637 27.0129 119.607 27.0129C121.713 27.0129 123.171 25.9149 123.585 23.8449H122.073Z" fill="#333132"/>
    <path d="M43.6494 1.9541V9H46.1348C48.2344 9 49.4697 7.69141 49.4697 5.46484C49.4697 3.24316 48.2295 1.9541 46.1348 1.9541H43.6494ZM44.7432 2.89648H46.0322C47.5215 2.89648 48.3516 3.81445 48.3516 5.47461C48.3516 7.13965 47.5264 8.05273 46.0322 8.05273H44.7432V2.89648ZM52.5947 9.09766C54.0645 9.09766 55.0312 8.08691 55.0312 6.43164C55.0312 4.78125 54.0596 3.77051 52.5947 3.77051C51.1299 3.77051 50.1582 4.78125 50.1582 6.43164C50.1582 8.08691 51.125 9.09766 52.5947 9.09766ZM52.5947 8.22852C51.7695 8.22852 51.2324 7.57422 51.2324 6.43164C51.2324 5.29395 51.7695 4.63965 52.5947 4.63965C53.4199 4.63965 53.957 5.29395 53.957 6.43164C53.957 7.57422 53.4248 8.22852 52.5947 8.22852ZM62.6045 3.86328H61.5596L60.6221 7.90625H60.5977L59.5234 3.86328H58.5078L57.4385 7.90625H57.4189L56.4814 3.86328H55.4268L56.8379 9H57.9268L58.9961 5.15234H59.0205L60.0996 9H61.1982L62.6045 3.86328ZM63.249 9H64.3037V6.00684C64.3037 5.21094 64.7822 4.68359 65.5244 4.68359C66.2568 4.68359 66.6182 5.1084 66.6182 5.87988V9H67.6777V5.6748C67.6777 4.49805 67.0283 3.77539 65.8955 3.77539C65.1045 3.77539 64.5576 4.13672 64.2793 4.72266H64.2549V3.86328H63.249V9ZM68.7373 9H69.792V1.9541H68.7373V9ZM73.083 9.09766C74.5527 9.09766 75.5195 8.08691 75.5195 6.43164C75.5195 4.78125 74.5479 3.77051 73.083 3.77051C71.6182 3.77051 70.6465 4.78125 70.6465 6.43164C70.6465 8.08691 71.6133 9.09766 73.083 9.09766ZM73.083 8.22852C72.2578 8.22852 71.7207 7.57422 71.7207 6.43164C71.7207 5.29395 72.2578 4.63965 73.083 4.63965C73.9082 4.63965 74.4453 5.29395 74.4453 6.43164C74.4453 7.57422 73.9131 8.22852 73.083 8.22852ZM77.8389 9.08789C78.5127 9.08789 79.1621 8.72656 79.46 8.15527H79.4844V9H80.4951V5.45996C80.4951 4.42969 79.6992 3.77051 78.4541 3.77051C77.1846 3.77051 76.3936 4.4541 76.335 5.38184H77.3311C77.4238 4.92285 77.8047 4.62988 78.415 4.62988C79.0596 4.62988 79.4453 4.97168 79.4453 5.54297V5.93848L78.0391 6.02148C76.8184 6.08984 76.1299 6.6416 76.1299 7.54004C76.1299 8.46289 76.833 9.08789 77.8389 9.08789ZM78.1318 8.25293C77.5654 8.25293 77.1943 7.95996 77.1943 7.51074C77.1943 7.07129 77.5508 6.79297 78.1807 6.74902L79.4453 6.6709V7.07617C79.4453 7.74512 78.8691 8.25293 78.1318 8.25293ZM83.4492 9.08789C84.1963 9.08789 84.7822 8.71191 85.085 8.12598H85.1045V9H86.1299V1.9541H85.0703V4.71777H85.0508C84.7627 4.15137 84.1768 3.78027 83.4395 3.78027C82.1504 3.78027 81.291 4.81055 81.291 6.43164C81.291 8.05273 82.1504 9.08789 83.4492 9.08789ZM83.7275 4.66895C84.5381 4.66895 85.0801 5.36719 85.0801 6.43164C85.0801 7.50586 84.5381 8.19434 83.7275 8.19434C82.8926 8.19434 82.3701 7.51562 82.3701 6.43164C82.3701 5.35254 82.8926 4.66895 83.7275 4.66895ZM91.4521 9.09766C92.9219 9.09766 93.8887 8.08691 93.8887 6.43164C93.8887 4.78125 92.917 3.77051 91.4521 3.77051C89.9873 3.77051 89.0156 4.78125 89.0156 6.43164C89.0156 8.08691 89.9824 9.09766 91.4521 9.09766ZM91.4521 8.22852C90.627 8.22852 90.0898 7.57422 90.0898 6.43164C90.0898 5.29395 90.627 4.63965 91.4521 4.63965C92.2773 4.63965 92.8145 5.29395 92.8145 6.43164C92.8145 7.57422 92.2822 8.22852 91.4521 8.22852ZM94.7041 9H95.7588V6.00684C95.7588 5.21094 96.2373 4.68359 96.9795 4.68359C97.7119 4.68359 98.0732 5.1084 98.0732 5.87988V9H99.1328V5.6748C99.1328 4.49805 98.4834 3.77539 97.3506 3.77539C96.5596 3.77539 96.0127 4.13672 95.7344 4.72266H95.71V3.86328H94.7041V9ZM102.492 2.64746V3.86328H101.745V4.69824H102.492V7.64746C102.492 8.63867 102.897 9.03418 103.938 9.03418C104.172 9.03418 104.406 9.01465 104.523 8.98535V8.15039C104.455 8.16504 104.284 8.1748 104.177 8.1748C103.747 8.1748 103.552 7.97461 103.552 7.53027V4.69824H104.528V3.86328H103.552V2.64746H102.492ZM105.437 9H106.491V6.03125C106.491 5.2207 106.97 4.68359 107.751 4.68359C108.493 4.68359 108.874 5.1377 108.874 5.89453V9H109.934V5.68945C109.934 4.52734 109.26 3.77539 108.132 3.77539C107.351 3.77539 106.789 4.12207 106.506 4.72266H106.481V1.9541H105.437V9ZM114.357 7.49121C114.216 7.94043 113.771 8.24316 113.171 8.24316C112.326 8.24316 111.789 7.65234 111.789 6.75879V6.69531H115.417V6.33398C115.417 4.77637 114.528 3.77051 113.103 3.77051C111.652 3.77051 110.725 4.84473 110.725 6.45605C110.725 8.07715 111.638 9.09766 113.146 9.09766C114.323 9.09766 115.212 8.42871 115.358 7.49121H114.357ZM113.103 4.62012C113.84 4.62012 114.338 5.17188 114.362 5.95801H111.794C111.848 5.18164 112.365 4.62012 113.103 4.62012Z" fill="#333132"/>
</svg>
