<svg width="28" height="28" viewBox="0 0 28 28" fill="none" xmlns="http://www.w3.org/2000/svg">
<path d="M22.8074 12.8298C22.2742 11.6321 21.5113 10.5712 20.5406 9.67975L19.7449 8.94967C19.6273 8.84577 19.4414 8.89225 19.3895 9.03991L19.034 10.0598C18.8125 10.6997 18.4051 11.3532 17.8281 11.9958C17.7898 12.0368 17.7461 12.0477 17.716 12.0505C17.6859 12.0532 17.6395 12.0477 17.5984 12.0094C17.5602 11.9766 17.541 11.9274 17.5437 11.8782C17.6449 10.2321 17.1527 8.37546 16.0754 6.35475C15.184 4.67585 13.9453 3.36608 12.3977 2.4528L11.2684 1.78835C11.1207 1.70085 10.932 1.81569 10.9402 1.98796L11.0004 3.30046C11.0414 4.19733 10.9375 4.9903 10.6914 5.64928C10.3906 6.45592 9.95859 7.20514 9.40625 7.8778C9.01797 8.34811 8.5832 8.77194 8.10742 9.13835C6.95625 10.0216 6.00742 11.1727 5.36484 12.4606C4.7168 13.7622 4.375 15.2196 4.375 16.6798C4.375 17.9704 4.6293 19.22 5.13242 20.3985C5.61914 21.5333 6.31367 22.5559 7.19688 23.4309C8.08281 24.3059 9.11094 24.995 10.2566 25.4735C11.4434 25.9712 12.7012 26.2227 14 26.2227C15.2988 26.2227 16.5566 25.9712 17.7434 25.4762C18.8891 24.9977 19.9199 24.3114 20.8031 23.4337C21.6891 22.5587 22.3836 21.536 22.8676 20.4012C23.3707 19.2227 23.625 17.9731 23.625 16.6825C23.625 15.3481 23.3516 14.052 22.8074 12.8298ZM19.4961 22.1075C18.0277 23.5622 16.0781 24.3606 14 24.3606C11.9219 24.3606 9.97227 23.5622 8.50391 22.1075C7.04102 20.6555 6.23438 18.7305 6.23438 16.6825C6.23438 15.493 6.50234 14.3528 7.03008 13.2919C7.54414 12.2555 8.30977 11.3286 9.23945 10.6149C9.82734 10.1665 10.366 9.64421 10.8418 9.06178C11.5254 8.2278 12.0613 7.29811 12.4332 6.30007C12.5809 5.90358 12.693 5.47975 12.7641 5.02858C13.423 5.63561 13.9754 6.36842 14.4375 7.22702C15.3508 8.93874 15.7719 10.4618 15.6898 11.7579C15.6516 12.3813 15.8949 12.9747 16.357 13.393C16.759 13.754 17.2785 13.9372 17.8172 13.9071C18.3559 13.8798 18.8508 13.6419 19.2117 13.2399C19.5754 12.8325 19.8898 12.4169 20.1523 11.993C20.5352 12.4825 20.8551 13.0157 21.1094 13.5899C21.5441 14.5688 21.7656 15.6106 21.7656 16.6825C21.7656 18.7305 20.959 20.6583 19.4961 22.1075Z" fill="#D43157"/>
<line x1="2.75746" y1="10.6591" x2="24.8518" y2="22.8764" stroke="#D43157" stroke-width="2" stroke-linecap="round"/>
</svg>
