<svg width="28" height="28" viewBox="0 0 28 28" fill="none" xmlns="http://www.w3.org/2000/svg">
<path d="M17.4996 26.5416C17.1846 26.5416 16.8929 26.3666 16.7413 26.0983C16.5896 25.8183 16.5896 25.4916 16.7529 25.2116L17.9779 23.1699C18.2229 22.7616 18.7596 22.6216 19.1796 22.8666C19.5996 23.1116 19.7279 23.6483 19.4829 24.0683L19.1679 24.5933C22.3879 23.8349 24.8029 20.9416 24.8029 17.4883C24.8029 17.0099 25.1996 16.6133 25.6779 16.6133C26.1563 16.6133 26.5529 17.0099 26.5529 17.4883C26.5413 22.4816 22.4812 26.5416 17.4996 26.5416Z" fill="#D43157"/>
<path d="M2.33398 11.3749C1.85565 11.3749 1.45898 10.9783 1.45898 10.4999C1.45898 5.51825 5.51898 1.45825 10.5007 1.45825C10.8157 1.45825 11.1073 1.63325 11.259 1.90159C11.4106 2.18159 11.4107 2.50825 11.2473 2.78825L10.0223 4.82992C9.77731 5.23825 9.24065 5.37825 8.82065 5.13325C8.40065 4.88825 8.2723 4.35158 8.5173 3.93158L8.83233 3.40658C5.61233 4.16492 3.19731 7.05825 3.19731 10.5116C3.20897 10.9783 2.81232 11.3749 2.33398 11.3749Z" fill="#D43157"/>
<path fill-rule="evenodd" clip-rule="evenodd" d="M18.8649 2.22097C18.6363 2.96498 18.1669 4.59251 17.9046 6.19591C18.5854 6.30581 19.2504 6.37605 19.834 6.37605C20.4175 6.37605 21.0826 6.30581 21.7634 6.19591C21.5011 4.59251 21.0316 2.96499 20.8031 2.22097C20.4879 2.17002 20.1642 2.14349 19.834 2.14349C19.5038 2.14349 19.1801 2.17002 18.8649 2.22097ZM21.9083 2.51008C22.1592 3.37875 22.507 4.6999 22.7241 6.01844C23.6615 5.82534 24.5459 5.58965 25.1882 5.40476C24.4998 4.07316 23.3291 3.03131 21.9083 2.51008ZM25.5664 6.31211C24.8878 6.50967 23.9048 6.77501 22.8576 6.9881C22.9012 7.39297 22.927 7.79079 22.927 8.16675C22.927 8.7153 22.8721 9.31235 22.7861 9.91256C24.0396 9.65124 25.1894 9.31724 25.7798 9.13589C25.8307 8.82064 25.8572 8.49695 25.8572 8.16675C25.8572 7.51899 25.7552 6.89586 25.5664 6.31211ZM25.4907 10.2411C24.7599 10.4521 23.7098 10.7315 22.6112 10.944C22.3987 12.0426 22.1194 13.0927 21.9083 13.8234C23.566 13.2153 24.8826 11.8987 25.4907 10.2411ZM20.8031 14.1125C20.9845 13.5221 21.3185 12.3723 21.5798 11.1189C20.9796 11.2049 20.3825 11.2598 19.834 11.2598C19.2854 11.2598 18.6884 11.2049 18.0882 11.1189C18.3495 12.3723 18.6835 13.5221 18.8648 14.1125C19.1801 14.1635 19.5038 14.19 19.834 14.19C20.1642 14.19 20.4879 14.1635 20.8031 14.1125ZM17.7597 13.8234C17.5486 13.0927 17.2692 12.0426 17.0567 10.944C15.9582 10.7315 14.9081 10.4521 14.1773 10.2411C14.7854 11.8987 16.102 13.2153 17.7597 13.8234ZM13.8882 9.13589C14.4786 9.31724 15.6284 9.65124 16.8818 9.91256C16.7959 9.31235 16.741 8.7153 16.741 8.16675C16.741 7.79079 16.7667 7.39297 16.8103 6.9881C15.7632 6.77501 14.7802 6.50967 14.1015 6.31211C13.9128 6.89587 13.8107 7.51899 13.8107 8.16675C13.8107 8.49695 13.8373 8.82064 13.8882 9.13589ZM14.4798 5.40476C15.1221 5.58966 16.0065 5.82534 16.9439 6.01844C17.161 4.6999 17.5088 3.37875 17.7597 2.51008C16.3388 3.03131 15.1682 4.07316 14.4798 5.40476ZM17.774 7.16421C17.7379 7.51617 17.7177 7.85367 17.7177 8.16675C17.7177 8.75158 17.7883 9.41867 17.8988 10.102C18.5821 10.2125 19.2492 10.283 19.834 10.283C20.4188 10.283 21.0859 10.2125 21.7692 10.102C21.8797 9.41867 21.9503 8.75158 21.9503 8.16675C21.9503 7.85367 21.93 7.51617 21.894 7.16421C21.189 7.27714 20.4779 7.3528 19.834 7.3528C19.1901 7.3528 18.479 7.27714 17.774 7.16421ZM18.3859 1.31681C18.8536 1.21841 19.338 1.16675 19.834 1.16675C20.33 1.16675 20.8144 1.21841 21.2821 1.31681C23.5741 1.7991 25.4515 3.40113 26.3176 5.52338C26.6507 6.33963 26.834 7.23239 26.834 8.16675C26.834 8.66273 26.7823 9.14718 26.6839 9.61483C26.1149 12.3192 23.9864 14.4476 21.2821 15.0167C20.8144 15.1151 20.33 15.1667 19.834 15.1667C19.338 15.1667 18.8536 15.1151 18.3859 15.0167C15.6815 14.4476 13.5531 12.3192 12.984 9.61483C12.8856 9.14718 12.834 8.66273 12.834 8.16675C12.834 7.23166 13.0176 6.33823 13.3512 5.52147C14.2176 3.40017 16.0946 1.79895 18.3859 1.31681Z" fill="#D43157" stroke="#D43157" stroke-width="0.3"/>
<path fill-rule="evenodd" clip-rule="evenodd" d="M8.16602 13.81C4.83946 13.81 2.14276 16.5067 2.14276 19.8333C2.14276 23.1598 4.83946 25.8565 8.16602 25.8565C11.4926 25.8565 14.1893 23.1598 14.1893 19.8333C14.1893 16.5067 11.4926 13.81 8.16602 13.81ZM1.16602 19.8333C1.16602 15.9673 4.30002 12.8333 8.16602 12.8333C12.032 12.8333 15.166 15.9673 15.166 19.8333C15.166 23.6992 12.032 26.8333 8.16602 26.8333C4.30002 26.8333 1.16602 23.6992 1.16602 19.8333ZM8.16602 16.7402C8.43574 16.7402 8.65439 16.9589 8.65439 17.2286L8.65439 19.5077C8.65439 20.3168 7.99843 20.9728 7.18927 20.9728H6.21253C5.94281 20.9728 5.72416 20.7541 5.72416 20.4844C5.72416 20.2147 5.94281 19.996 6.21253 19.996H7.18927C7.45899 19.996 7.67764 19.7774 7.67764 19.5077L7.67764 17.2286C7.67764 16.9589 7.8963 16.7402 8.16602 16.7402Z" fill="#D43157" stroke="#D43157" stroke-width="0.5" stroke-linecap="round"/>
</svg>
