<svg width="121" height="32" viewBox="0 0 121 32" fill="none" xmlns="http://www.w3.org/2000/svg">
    <g clip-path="url(#clip0_2296_7473)">
        <path d="M22.0404 20.8821C25.8297 18.8013 28.7026 17.2159 28.9502 17.0928C29.742 16.6714 30.5602 15.5565 28.9502 14.6906C28.4303 14.4184 25.6314 12.8821 22.0404 10.9014L17.0625 15.9286L22.0401 20.8821H22.0404Z" fill="#FFD900"/>
        <path d="M17.0656 15.9287L1.21484 31.904C1.58664 31.9533 2.00671 31.8546 2.50216 31.5823C3.54189 31.0134 14.5634 24.9942 22.0438 20.8833L17.0656 15.9287Z" fill="#D92D20"/>
        <path d="M17.0627 15.9287L22.0403 10.9259C22.0403 10.9259 3.61407 0.87008 2.49895 0.276726C2.07943 0.0272353 1.60865 -0.0465271 1.1875 0.0272353L17.0627 15.9285V15.9287Z" fill="#33B284"/>
        <path d="M17.0643 15.9286L1.18888 0.0273438C0.54454 0.176225 0 0.745443 0 1.9091V30.0213C0 31.087 0.421422 31.8545 1.21328 31.9282L17.0641 15.9283L17.0643 15.9286Z" fill="#00D3FF"/>
        <path d="M64.4163 19.4286C62.1307 19.4286 60.2423 21.1838 60.2423 23.5904C60.2423 25.9773 62.1109 27.7522 64.4165 27.7522C66.7219 27.7522 68.5903 25.997 68.5903 23.5904C68.5903 21.1838 66.7219 19.4286 64.4163 19.4286ZM64.4163 26.0961C63.1638 26.0961 62.0713 25.0504 62.0713 23.5718C62.0713 22.0728 63.1647 21.0476 64.4163 21.0476C65.6679 21.0476 66.7613 22.0728 66.7613 23.5718C66.7613 25.0504 65.6679 26.0961 64.4163 26.0961ZM55.3329 19.4286C53.0272 19.4286 51.1586 21.1838 51.1586 23.5904C51.1586 25.9773 53.0272 27.7522 55.3329 27.7522C57.6383 27.7522 59.5069 25.997 59.5069 23.5904C59.5069 21.1838 57.6383 19.4286 55.3326 19.4286H55.3329ZM55.3329 26.0961C54.0802 26.0961 52.9878 25.0504 52.9878 23.5718C52.9878 22.0728 54.0812 21.0476 55.3329 21.0476C56.5854 21.0476 57.6779 22.0728 57.6779 23.5718C57.6779 25.0504 56.6041 26.0961 55.3329 26.0961ZM44.5399 20.7109V22.4661H48.7533C48.6336 23.4522 48.2967 24.182 47.7994 24.6755C47.1835 25.2867 46.2294 25.9577 44.5399 25.9577C41.9357 25.9577 39.9289 23.8671 39.9289 21.283C39.9289 18.6989 41.9368 16.5687 44.5399 16.5687C45.9506 16.5687 46.965 17.1212 47.7202 17.8315L48.9718 16.5884C47.918 15.5828 46.5073 14.8137 44.5399 14.8137C40.9816 14.8137 38 17.7127 38 21.2437C38 24.7748 40.9816 27.6738 44.5399 27.6738C46.4677 27.6738 47.8993 27.043 49.0519 25.8588C50.2245 24.6951 50.5823 23.0576 50.5823 21.7363C50.5823 21.3223 50.5429 20.9473 50.4827 20.6316L44.5399 20.7109ZM88.7052 22.0717C88.367 21.1445 87.2943 19.4286 85.1469 19.4286C82.9997 19.4286 81.231 21.1054 81.231 23.5904C81.231 25.9175 82.9997 27.7522 85.3458 27.7522C87.2538 27.7522 88.3472 26.5885 88.804 25.9175L87.3933 24.9709C86.9158 25.6616 86.2801 26.1147 85.3458 26.1147C84.4115 26.1147 83.756 25.7007 83.3379 24.8521L88.8832 22.5447L88.7052 22.0717ZM83.06 23.4727C83.0206 21.8745 84.3127 21.0465 85.2261 21.0465C85.9617 21.0465 86.558 21.4015 86.7763 21.9343L83.06 23.4727ZM78.548 27.4764H80.377V15.2865H78.548V27.4764ZM75.5672 20.3558H75.5078C75.0906 19.8623 74.3156 19.4286 73.321 19.4286C71.2339 19.4286 69.3457 21.2633 69.3457 23.5904C69.3457 25.9175 71.2537 27.7328 73.321 27.7328C74.3145 27.7328 75.0897 27.2989 75.5078 26.7857H75.5672V27.3775C75.5672 28.9757 74.7119 29.8232 73.3408 29.8232C72.2276 29.8232 71.5316 29.0148 71.2537 28.3438L69.6641 29.0148C70.1207 30.1195 71.3338 31.4803 73.3408 31.4803C75.4871 31.4803 77.2963 30.2178 77.2963 27.1607V19.6848H75.5672V20.3558ZM73.4801 26.0961C72.2276 26.0961 71.1747 25.0504 71.1747 23.5915C71.1747 22.1326 72.2285 21.067 73.4801 21.067C74.713 21.067 75.7065 22.1326 75.7065 23.5915C75.7057 25.0307 74.7119 26.0961 73.4801 26.0961ZM97.2321 15.2867H92.8594V27.4764H94.6884V22.8604H97.2321C99.2598 22.8604 101.247 21.4005 101.247 19.0736C101.247 16.7465 99.2598 15.2865 97.2321 15.2865V15.2867ZM97.2913 21.1653H94.7071V16.9827H97.2913C98.6428 16.9827 99.4378 18.1071 99.4378 19.0733C99.4189 20.0202 98.6439 21.1653 97.2913 21.1653ZM108.542 19.409C107.23 19.409 105.859 19.9811 105.302 21.283L106.913 21.954C107.271 21.283 107.906 21.0661 108.583 21.0661C109.537 21.0661 110.491 21.638 110.51 22.6436V22.7624C110.172 22.5652 109.477 22.2885 108.602 22.2885C106.854 22.2885 105.084 23.255 105.084 25.0307C105.084 26.668 106.515 27.7131 108.105 27.7131C109.338 27.7131 110.013 27.1607 110.43 26.5101H110.49V27.457H112.258V22.7818C112.239 20.6322 110.629 19.4088 108.542 19.4088V19.409ZM108.324 26.0765C107.727 26.0765 106.892 25.7802 106.892 25.0513C106.892 24.1044 107.925 23.7494 108.82 23.7494C109.615 23.7494 109.992 23.9269 110.49 24.1634C110.35 25.2877 109.377 26.0765 108.324 26.0765ZM118.639 19.6858L116.552 24.9521H116.493L114.327 19.6856H112.359L115.619 27.0624L113.77 31.1851H115.678L120.666 19.6856H118.639L118.639 19.6858ZM102.261 27.4764H104.09V15.2865H102.261V27.4764Z" fill="#333132"/>
        <path d="M44.2256 6.32324V9.0918C44.1214 9.22526 43.957 9.37012 43.7324 9.52637C43.5111 9.68262 43.2214 9.81771 42.8633 9.93164C42.5052 10.0423 42.0658 10.0977 41.5449 10.0977C41.0924 10.0977 40.679 10.0228 40.3047 9.87305C39.9303 9.72005 39.6081 9.49707 39.3379 9.2041C39.0677 8.91113 38.8594 8.55306 38.7129 8.12988C38.5664 7.70671 38.4932 7.22331 38.4932 6.67969V6.21094C38.4932 5.66732 38.5615 5.18392 38.6982 4.76074C38.8382 4.33757 39.0368 3.97949 39.2939 3.68652C39.5544 3.39355 39.8652 3.17057 40.2266 3.01758C40.5911 2.86458 40.998 2.78809 41.4473 2.78809C42.0495 2.78809 42.5443 2.88737 42.9316 3.08594C43.3223 3.28451 43.6217 3.55794 43.8301 3.90625C44.0384 4.2513 44.1686 4.64844 44.2207 5.09766H42.9121C42.8763 4.85026 42.8047 4.63379 42.6973 4.44824C42.5898 4.25944 42.4368 4.11296 42.2383 4.00879C42.043 3.90137 41.7891 3.84766 41.4766 3.84766C41.2129 3.84766 40.9801 3.89974 40.7783 4.00391C40.5765 4.10807 40.4072 4.25944 40.2705 4.45801C40.1338 4.65658 40.0296 4.90234 39.958 5.19531C39.8896 5.48828 39.8555 5.82357 39.8555 6.20117V6.67969C39.8555 7.06055 39.8945 7.39909 39.9727 7.69531C40.0508 7.98828 40.1631 8.23568 40.3096 8.4375C40.4593 8.63607 40.6432 8.78743 40.8613 8.8916C41.0827 8.99251 41.3333 9.04297 41.6133 9.04297C41.8672 9.04297 42.0771 9.02181 42.2432 8.97949C42.4124 8.93392 42.5475 8.88021 42.6484 8.81836C42.7493 8.75651 42.8275 8.69629 42.8828 8.6377V7.30469H41.4717V6.32324H44.2256ZM50.207 8.94531V10H46.4277V8.94531H50.207ZM46.8379 2.89062V10H45.4951V2.89062H46.8379ZM49.7139 5.8252V6.85547H46.4277V5.8252H49.7139ZM50.1924 2.89062V3.9502H46.4277V2.89062H50.1924ZM54.2891 2.89062V10H52.9512V2.89062H54.2891ZM56.4961 2.89062V3.9502H50.7686V2.89062H56.4961ZM61.0664 2.89062V10H59.7236V2.89062H61.0664ZM65.4219 2.89062V10H64.084V2.89062H65.4219ZM67.6289 2.89062V3.9502H61.9014V2.89062H67.6289ZM76.5254 6.26465V6.63086C76.5254 7.16797 76.4538 7.65137 76.3105 8.08105C76.1673 8.50749 75.9639 8.87044 75.7002 9.16992C75.4365 9.4694 75.1224 9.69889 74.7578 9.8584C74.3932 10.0179 73.988 10.0977 73.542 10.0977C73.1025 10.0977 72.6989 10.0179 72.3311 9.8584C71.9665 9.69889 71.6507 9.4694 71.3838 9.16992C71.1169 8.87044 70.9102 8.50749 70.7637 8.08105C70.6172 7.65137 70.5439 7.16797 70.5439 6.63086V6.26465C70.5439 5.72428 70.6172 5.24089 70.7637 4.81445C70.9102 4.38802 71.1152 4.02507 71.3789 3.72559C71.6426 3.42285 71.9567 3.19173 72.3213 3.03223C72.6891 2.87272 73.0928 2.79297 73.5322 2.79297C73.9782 2.79297 74.3835 2.87272 74.748 3.03223C75.1126 3.19173 75.4268 3.42285 75.6904 3.72559C75.9574 4.02507 76.1624 4.38802 76.3057 4.81445C76.4521 5.24089 76.5254 5.72428 76.5254 6.26465ZM75.168 6.63086V6.25488C75.168 5.86751 75.1322 5.52734 75.0605 5.23438C74.9889 4.93815 74.8831 4.68913 74.7432 4.4873C74.6032 4.28548 74.4307 4.13411 74.2256 4.0332C74.0205 3.92904 73.7894 3.87695 73.5322 3.87695C73.2718 3.87695 73.0407 3.92904 72.8389 4.0332C72.6403 4.13411 72.471 4.28548 72.3311 4.4873C72.1911 4.68913 72.0837 4.93815 72.0088 5.23438C71.9372 5.52734 71.9014 5.86751 71.9014 6.25488V6.63086C71.9014 7.01497 71.9372 7.35514 72.0088 7.65137C72.0837 7.94759 72.1911 8.19824 72.3311 8.40332C72.4743 8.60514 72.6468 8.75814 72.8486 8.8623C73.0505 8.96647 73.2816 9.01855 73.542 9.01855C73.8024 9.01855 74.0335 8.96647 74.2354 8.8623C74.4372 8.75814 74.6064 8.60514 74.7432 8.40332C74.8831 8.19824 74.9889 7.94759 75.0605 7.65137C75.1322 7.35514 75.168 7.01497 75.168 6.63086ZM83.376 2.89062V10H82.0283L79.0059 5.06836V10H77.6631V2.89062H79.0059L82.0381 7.82715V2.89062H83.376Z" fill="#333132"/>
    </g>
    <defs>
        <clipPath id="clip0_2296_7473">
            <rect width="120.666" height="32" fill="white"/>
        </clipPath>
    </defs>
</svg>
