<svg width="118" height="28" viewBox="0 0 118 28" fill="none" xmlns="http://www.w3.org/2000/svg">
<path fill-rule="evenodd" clip-rule="evenodd" d="M18.8633 1.33398H7.79401C2.57535 1.33398 0.666016 3.24332 0.666016 8.46198V19.5393C0.666016 24.758 2.57535 26.6673 7.79401 26.6673H18.8633C24.082 26.6673 25.994 24.758 25.994 19.5393V8.46198C25.9993 3.24332 24.09 1.33398 18.8633 1.33398Z" fill="#F1494D"/>
<path d="M5.68152 14H6.35352V17.3147H5.68152V15.968H4.16419V17.3147H3.49219V14H4.16419V15.3333H5.68152V14ZM9.46819 15.896C9.46819 16.4293 9.20152 16.7227 8.71619 16.7227C8.23085 16.7227 7.95885 16.4293 7.95885 15.8667V14H7.28685V15.8933C7.28685 16.824 7.80419 17.3573 8.70552 17.3573C9.60685 17.3573 10.1402 16.824 10.1402 15.864V14H9.46819V15.896ZM17.2335 16.2773L16.4815 14H15.9295L15.1829 16.28L14.4495 14H13.7349L14.8895 17.3147H15.4469L16.1962 15.1387L16.9482 17.3147H17.5109L18.6655 14H17.9669L17.2335 16.2773ZM19.8682 15.8853H21.0922V15.2853H19.8682V14.608H21.6442V14H19.2069V17.3067H21.7082V16.7093H19.8682V15.8853ZM22.5082 17.3067H23.1722V14H22.5082V17.3067ZM11.4682 16.6213L11.1669 17.3093H10.4815L11.9295 14H12.5215L13.9749 17.3093H13.2815L12.9962 16.624L11.4682 16.6213ZM11.7189 16.024H12.7295L12.2229 14.84L11.7189 16.024Z" fill="white"/>
<path d="M13.3332 9.78436C12.2153 9.78365 11.1433 9.33924 10.3528 8.54874C9.56231 7.75824 9.11789 6.6863 9.11719 5.56836H9.71186C9.71186 6.5288 10.0934 7.4499 10.7725 8.12903C11.4517 8.80816 12.3728 9.18969 13.3332 9.18969C14.2936 9.18969 15.2147 8.80816 15.8939 8.12903C16.573 7.4499 16.9545 6.5288 16.9545 5.56836H17.5492C17.5485 6.6863 17.1041 7.75824 16.3136 8.54874C15.5231 9.33924 14.4511 9.78365 13.3332 9.78436Z" fill="white"/>
<path d="M33.9941 0.890625H37.5408L37.4421 1.74929H35.0288V3.41063H37.3035V4.21063H35.0288V6.05063H37.5701L37.4821 6.92263H33.9941V0.890625Z" fill="#333132"/>
<path d="M39.9922 3.84529L38.1256 0.890625H39.3096L40.5789 3.06129L41.9122 0.890625H43.0616L41.1949 3.80796L43.2136 6.92263H42.0136L40.5762 4.54929L39.1122 6.92263H37.9629L39.9922 3.84529Z" fill="#333132"/>
<path d="M43.9785 0.890625H45.6052C46.3678 0.890625 46.9527 1.04618 47.3598 1.35729C47.5624 1.51662 47.7234 1.72251 47.8292 1.95743C47.9351 2.19236 47.9826 2.44938 47.9678 2.70663C47.9791 3.07407 47.8867 3.43727 47.7012 3.75463C47.5201 4.05297 47.256 4.29206 46.9412 4.44263C46.5914 4.60799 46.208 4.69014 45.8212 4.68263C45.5526 4.67883 45.2849 4.65116 45.0212 4.59996V6.92263H43.9785V0.890625ZM46.5918 3.58396C46.7056 3.4747 46.7943 3.34207 46.8519 3.19521C46.9094 3.04835 46.9344 2.89075 46.9252 2.73329C46.9388 2.58239 46.915 2.43047 46.8559 2.29094C46.7968 2.15141 46.7043 2.02858 46.5865 1.93329C46.2864 1.75051 45.9372 1.66484 45.5865 1.68796H45.0212V3.82129C45.2193 3.85699 45.4199 3.87749 45.6212 3.88263C45.9708 3.90886 46.3175 3.8022 46.5918 3.58396Z" fill="#333132"/>
<path d="M48.998 0.890625H50.038V6.03196H52.534L52.446 6.92263H48.998V0.890625Z" fill="#333132"/>
<path d="M54.1175 6.62743C53.6805 6.3815 53.3274 6.00986 53.1042 5.56076C52.8616 5.06298 52.7419 4.51434 52.7549 3.96076C52.7421 3.38228 52.8702 2.80937 53.1282 2.29143C53.3647 1.82455 53.7364 1.43981 54.1949 1.18743C54.7081 0.918617 55.2825 0.788112 55.8615 0.80876C56.409 0.794065 56.9507 0.923743 57.4322 1.18476C57.8666 1.43156 58.2169 1.80318 58.4375 2.25143C58.6754 2.74402 58.7932 3.28589 58.7815 3.83276C58.796 4.41769 58.6669 4.99726 58.4055 5.52076C58.1668 5.98601 57.7956 6.37016 57.3389 6.62476C56.8346 6.89301 56.2699 7.02708 55.6989 7.01409C55.1468 7.02806 54.6009 6.89458 54.1175 6.62743ZM56.8162 5.88876C57.1102 5.69396 57.3388 5.41521 57.4722 5.08876C57.6218 4.71506 57.6953 4.31523 57.6882 3.91276C57.6949 3.51766 57.6298 3.12463 57.4962 2.75276C57.3765 2.43066 57.1629 2.15195 56.8829 1.95276C56.5582 1.75407 56.1849 1.64893 55.8042 1.64893C55.4235 1.64893 55.0502 1.75407 54.7255 1.95276C54.4307 2.15729 54.2011 2.44245 54.0642 2.77409C53.9125 3.13239 53.8371 3.51837 53.8429 3.90743C53.8364 4.30825 53.9071 4.70657 54.0509 5.08076C54.1786 5.4231 54.4122 5.71578 54.7177 5.91624C55.0232 6.11671 55.3846 6.21451 55.7495 6.19543C56.1281 6.20474 56.5004 6.0977 56.8162 5.88876Z" fill="#333132"/>
<path d="M59.9414 0.891024H61.8294C62.3825 0.85187 62.933 0.997234 63.3947 1.30436C63.5719 1.44344 63.7129 1.6232 63.8057 1.82839C63.8986 2.03358 63.9405 2.25815 63.9281 2.48302C63.9343 2.77543 63.8684 3.06486 63.7361 3.32569C63.6204 3.5544 63.4588 3.75683 63.2614 3.92036C63.085 4.06283 62.8869 4.17625 62.6747 4.25636L64.5414 6.92302H63.3281L61.7574 4.52302H60.9921V6.92302H59.9414V0.891024ZM61.5761 3.74436C61.8077 3.74941 62.0371 3.69913 62.2454 3.59769C62.433 3.50762 62.5911 3.36613 62.7014 3.18969C62.8115 3.00136 62.8677 2.78645 62.8641 2.56836C62.8748 2.44249 62.8541 2.31592 62.8039 2.20002C62.7536 2.08412 62.6753 1.98253 62.5761 1.90436C62.3261 1.74784 62.0331 1.67412 61.7387 1.69369H60.9841V3.75502L61.5761 3.74436Z" fill="#333132"/>
<path d="M65.3555 0.890625H68.9101L68.8088 1.74929H66.4088V3.41063H68.6621V4.21063H66.3875V6.05063H68.9288L68.8515 6.92263H65.3555V0.890625Z" fill="#333132"/>
<path d="M72.7754 0.890625H73.8154V6.92263H72.7754V0.890625Z" fill="#333132"/>
<path d="M76.5698 1.75996H74.7031L74.7938 0.890625H79.4871L79.3911 1.75996H77.6125V6.92263H76.5698V1.75996Z" fill="#333132"/>
<path d="M84.0082 6.62733C83.5719 6.38125 83.2198 6.00958 82.9976 5.56067C82.7528 5.06357 82.632 4.5146 82.6456 3.96067C82.6328 3.38218 82.7609 2.80928 83.0189 2.29133C83.256 1.82494 83.6276 1.44038 84.0856 1.18733C84.5948 0.917201 85.1652 0.783098 85.7416 0.798001C86.2955 0.783084 86.8433 0.916585 87.3282 1.18467C87.7633 1.43068 88.1137 1.80251 88.3335 2.25133C88.5723 2.7437 88.6911 3.28558 88.6802 3.83267C88.695 4.41794 88.565 4.99781 88.3015 5.52067C88.0636 5.98649 87.6922 6.37084 87.2349 6.62467C86.7309 6.8936 86.166 7.02771 85.5949 7.014C85.041 7.02892 84.4932 6.89542 84.0082 6.62733ZM86.7096 5.88867C87.0021 5.69298 87.2296 5.41442 87.3629 5.08867C87.5125 4.71497 87.5859 4.31514 87.5789 3.91267C87.5856 3.51757 87.5205 3.12454 87.3869 2.75267C87.2682 2.43076 87.0554 2.15201 86.7762 1.95267C86.4511 1.75375 86.0774 1.64848 85.6962 1.64848C85.3151 1.64848 84.9413 1.75375 84.6162 1.95267C84.3214 2.1572 84.0918 2.44235 83.9549 2.774C83.8044 3.13268 83.7291 3.5184 83.7336 3.90733C83.7271 4.30816 83.7977 4.70648 83.9416 5.08067C84.0688 5.40961 84.2906 5.69354 84.5789 5.89667C84.8946 6.10504 85.2676 6.20947 85.6456 6.19533C86.0231 6.20308 86.3941 6.09615 86.7096 5.88867Z" fill="#333132"/>
<path d="M89.834 0.890625H91.0287L94.0126 5.56529C93.986 5.11996 93.9753 4.71196 93.9753 4.33596V0.890625H94.9406V6.92263H93.7833L90.754 2.17329C90.7833 2.70663 90.7993 3.18929 90.7993 3.60796V6.92263H89.834V0.890625Z" fill="#333132"/>
<path d="M41.8848 20.4286H37.1941L36.0555 23.5593H33.9941L38.5808 11.8633H40.5275L45.2181 23.5593H43.0608L41.8848 20.4286ZM37.7915 18.8286H41.2848L40.0341 15.4793C39.8635 15.0179 39.6928 14.5059 39.5275 13.9459C39.3755 14.4419 39.2101 14.9459 39.0341 15.4633L37.7915 18.8286Z" fill="#333132"/>
<path d="M46.0484 16.98C46.0484 16.3346 46.027 15.6235 45.9844 14.8466H47.851C47.9212 15.2123 47.9693 15.5819 47.995 15.9533C48.3216 15.5619 48.7291 15.2458 49.1894 15.0267C49.6497 14.8076 50.152 14.6906 50.6617 14.684C51.2594 14.6745 51.8463 14.8435 52.3475 15.1694C52.8486 15.4953 53.2412 15.9632 53.475 16.5133C53.8031 17.2696 53.9588 18.0894 53.931 18.9133C53.9513 19.8117 53.769 20.703 53.3977 21.5213C53.0871 22.2004 52.5799 22.7708 51.9417 23.1586C51.2851 23.5381 50.5373 23.7308 49.779 23.716C49.1824 23.7156 48.5901 23.6146 48.027 23.4173V27.0253L46.0324 27.196L46.0484 16.98ZM51.291 21.4253C51.6964 20.892 51.9017 20.092 51.9017 19.0253C51.9017 18.0529 51.7328 17.3417 51.395 16.892C51.2424 16.6829 51.0414 16.5141 50.8092 16.3998C50.5769 16.2855 50.3204 16.2293 50.0617 16.236C49.6891 16.231 49.3215 16.3229 48.995 16.5026C48.6482 16.6991 48.3328 16.9463 48.059 17.236V21.9026C48.28 22.0068 48.5128 22.0838 48.7524 22.132C49.01 22.1877 49.2728 22.2163 49.5364 22.2173C49.8711 22.2373 50.2058 22.1757 50.5114 22.0378C50.8171 21.8998 51.0846 21.6896 51.291 21.4253Z" fill="#333132"/>
<path d="M55.1441 16.98C55.1441 16.3346 55.1227 15.6235 55.0801 14.8466H56.9467C57.0191 15.212 57.0681 15.5817 57.0934 15.9533C57.8703 15.1071 58.7592 14.684 59.7601 14.684C60.3578 14.6745 60.9447 14.8435 61.4458 15.1694C61.947 15.4953 62.3396 15.9632 62.5734 16.5133C62.9014 17.2696 63.0572 18.0894 63.0294 18.9133C63.0539 19.8106 62.8761 20.702 62.5094 21.5213C62.198 22.2008 61.6899 22.7712 61.0507 23.1586C60.3943 23.5384 59.6463 23.7312 58.8881 23.716C58.2914 23.7156 57.6991 23.6146 57.1361 23.4173V27.0253L55.1414 27.196L55.1441 16.98ZM60.3947 21.4253C60.8001 20.8795 61.0027 20.0795 61.0027 19.0253C61.0027 18.0529 60.8347 17.3417 60.4987 16.892C60.3461 16.6829 60.1451 16.5141 59.9128 16.3998C59.6806 16.2855 59.4241 16.2293 59.1654 16.236C58.7928 16.2315 58.4254 16.3233 58.0987 16.5026C57.7519 16.6991 57.4365 16.9463 57.1627 17.236V21.9026C57.384 22.006 57.6168 22.083 57.8561 22.132C58.1137 22.1877 58.3765 22.2163 58.6401 22.2173C58.9748 22.2369 59.3092 22.1751 59.6148 22.0371C59.9204 21.8992 60.188 21.6893 60.3947 21.4253Z" fill="#333132"/>
<path d="M66.6966 23.0064C65.8439 22.5397 65.1516 21.827 64.7099 20.9611C64.2264 19.9832 63.9884 18.9022 64.0166 17.8117C63.982 16.645 64.2581 15.49 64.8166 14.4651C65.3209 13.5756 66.0783 12.8562 66.9926 12.3984C67.9534 11.9289 69.0113 11.6923 70.0806 11.7077C70.729 11.7049 71.3754 11.7801 72.0059 11.9317C72.5956 12.0706 73.168 12.2745 73.7126 12.5397L73.1952 14.0731C72.252 13.5973 71.2142 13.3385 70.1579 13.3157C69.4123 13.3033 68.6766 13.4872 68.0246 13.8491C67.4059 14.2042 66.9087 14.7377 66.5979 15.3797C66.2405 16.1413 66.0669 16.9762 66.0912 17.8171C66.0779 18.5747 66.2101 19.3279 66.4806 20.0357C66.7261 20.6623 67.158 21.1984 67.7179 21.5717C68.3558 21.9709 69.0994 22.1679 69.8512 22.1371C70.2408 22.1361 70.6297 22.1031 71.0139 22.0384C71.3857 21.9793 71.7509 21.8847 72.1046 21.7557V19.3771H69.4006V17.8277H74.0432V22.7584C73.3697 23.0723 72.6643 23.3128 71.9392 23.4757C71.2203 23.6414 70.485 23.7254 69.7472 23.7264C68.6854 23.7519 67.6349 23.504 66.6966 23.0064Z" fill="#333132"/>
<path d="M81.1274 23.5593C81.052 23.1785 81.0056 22.7925 80.9888 22.4047C80.6562 22.7928 80.249 23.1102 79.7914 23.338C79.2753 23.5994 78.7032 23.7312 78.1247 23.722C77.6514 23.728 77.1828 23.6268 76.7541 23.426C76.3468 23.2339 76.0061 22.9247 75.7754 22.538C75.5206 22.099 75.3941 21.5973 75.4101 21.09C75.3951 20.7052 75.47 20.3222 75.6288 19.9714C75.7875 19.6205 76.0258 19.3115 76.3247 19.0687C76.9327 18.5638 77.947 18.3122 79.3674 18.314C79.8965 18.3138 80.425 18.3512 80.9487 18.426V18.2553C80.9487 17.4873 80.7852 16.9451 80.4581 16.6287C80.067 16.2922 79.5595 16.1227 79.0447 16.1567C78.5837 16.1623 78.1251 16.225 77.6794 16.3433C77.2379 16.4498 76.8075 16.598 76.3941 16.786L76.0794 15.3353C76.5316 15.1423 77.0013 14.9932 77.4821 14.89C78.0867 14.7533 78.7048 14.6853 79.3247 14.6873C79.9815 14.6694 80.635 14.7865 81.2447 15.0313C81.781 15.2684 82.2177 15.6853 82.4794 16.21C82.8067 16.9126 82.9595 17.6837 82.9247 18.458V21.9247C82.9247 22.2802 82.9461 22.826 82.9888 23.562L81.1274 23.5593ZM79.9327 21.9593C80.3171 21.7807 80.6624 21.5279 80.9487 21.2153V19.6153C80.5061 19.563 80.0611 19.5336 79.6154 19.5273C78.7923 19.5273 78.2225 19.6607 77.9061 19.9273C77.7517 20.0577 77.629 20.2215 77.5472 20.4063C77.4655 20.5911 77.4268 20.7921 77.4341 20.994C77.4196 21.1685 77.4429 21.344 77.5022 21.5088C77.5616 21.6735 77.6557 21.8235 77.7781 21.9487C78.038 22.1679 78.3719 22.2795 78.7114 22.2607C79.1361 22.2543 79.5538 22.1512 79.9327 21.9593Z" fill="#333132"/>
<path d="M84.4668 21.469V11.1756L86.4508 11.0156V21.1143C86.4226 21.3946 86.4893 21.6763 86.6401 21.9143C86.7163 21.9962 86.8102 22.0597 86.9147 22.0999C87.0191 22.1401 87.1313 22.156 87.2428 22.1463C87.4237 22.1385 87.6028 22.108 87.7761 22.0556L88.0108 23.485C87.7875 23.5693 87.556 23.63 87.3201 23.6663C87.0656 23.7104 86.8078 23.7336 86.5495 23.7356C85.161 23.7267 84.4668 22.9712 84.4668 21.469Z" fill="#333132"/>
<path d="M89.4297 21.469V11.1756L91.4163 11.0156V21.1143C91.3881 21.3946 91.4548 21.6763 91.6057 21.9143C91.6819 21.9962 91.7758 22.0597 91.8802 22.0999C91.9846 22.1401 92.0969 22.156 92.2083 22.1463C92.3892 22.1385 92.5684 22.108 92.7417 22.0556L92.9737 23.485C92.7513 23.5693 92.5207 23.6301 92.2857 23.6663C92.0302 23.7106 91.7716 23.7338 91.5124 23.7356C90.1257 23.7267 89.4315 22.9712 89.4297 21.469Z" fill="#333132"/>
<path d="M101.133 19.4568H95.4346C95.5253 21.2826 96.3946 22.1955 98.0426 22.1955C98.4656 22.1933 98.8869 22.1432 99.2986 22.0462C99.7191 21.9483 100.13 21.8145 100.528 21.6462L100.965 23.0115C99.9386 23.4954 98.8148 23.738 97.6799 23.7208C96.8669 23.7443 96.0613 23.5608 95.3386 23.1875C94.7125 22.8492 94.2101 22.3206 93.9039 21.6782C93.5655 20.9339 93.4013 20.1222 93.4239 19.3048C93.4018 18.4484 93.5761 17.5982 93.9333 16.8195C94.2379 16.1587 94.7304 15.6022 95.3493 15.2195C95.9836 14.8459 96.7092 14.6557 97.4453 14.6702C98.1758 14.6443 98.8963 14.8466 99.5066 15.2488C100.057 15.6309 100.483 16.1658 100.733 16.7875C101.008 17.4647 101.144 18.1901 101.133 18.9208V19.4568ZM99.1893 18.1902C99.1944 17.6238 99.0062 17.0726 98.6559 16.6275C98.4994 16.4522 98.3062 16.3136 98.0901 16.2214C97.8739 16.1292 97.6401 16.0858 97.4053 16.0942C97.1689 16.0893 96.9342 16.1343 96.7164 16.2262C96.4987 16.3181 96.3027 16.4548 96.1413 16.6275C95.7653 17.0656 95.535 17.6099 95.4826 18.1848L99.1893 18.1902Z" fill="#333132"/>
<path d="M102.643 17.0357C102.643 16.5584 102.619 15.8277 102.576 14.849H104.443C104.475 15.0917 104.504 15.3824 104.536 15.7157C104.568 16.049 104.584 16.3264 104.595 16.537C104.796 16.1971 105.024 15.8743 105.278 15.5717C105.498 15.3131 105.763 15.0971 106.062 14.9344C106.375 14.7652 106.727 14.6798 107.083 14.6864C107.353 14.6798 107.622 14.713 107.883 14.785L107.632 16.513C107.32 16.4226 106.992 16.3997 106.67 16.4456C106.348 16.4916 106.04 16.6055 105.766 16.7797C105.324 17.1078 104.939 17.5059 104.627 17.9584V23.5584H102.643V17.0357Z" fill="#333132"/>
<path d="M108.993 27.1243C108.75 27.0849 108.51 27.027 108.275 26.9509L108.638 25.4976C108.806 25.5428 108.976 25.5793 109.147 25.6069C109.339 25.641 109.534 25.6589 109.729 25.6603C110.618 25.6603 111.279 25.0923 111.713 23.9563L111.843 23.6336L108.63 14.8496H110.763L112.395 19.7589C112.604 20.3904 112.773 21.0343 112.902 21.6869C113.054 21.0576 113.23 20.4283 113.435 19.7989L115.062 14.8496H117.07L113.87 23.6736C113.629 24.3844 113.3 25.0624 112.891 25.6923C112.58 26.168 112.155 26.5585 111.654 26.8283C111.118 27.0902 110.526 27.2183 109.929 27.2016C109.615 27.2028 109.302 27.1769 108.993 27.1243Z" fill="#333132"/>
</svg>
