<svg width="56" height="56" viewBox="0 0 56 56" fill="none" xmlns="http://www.w3.org/2000/svg">
<path fill-rule="evenodd" clip-rule="evenodd" d="M14.0254 0H41.9746C49.6987 0 56 6.30127 56 14.0254V41.9746C56 49.6987 49.6987 56 41.9746 56H14.0254C6.30127 56 0 49.6987 0 41.9746V13.9238C0 6.19964 6.30127 0 14.0254 0Z" fill="#00CDC4"/>
<path fill-rule="evenodd" clip-rule="evenodd" d="M24.7973 17.5836C24.6956 17.5836 24.4924 17.5836 24.3907 17.482C23.8826 17.2787 23.6793 16.6689 23.8826 16.1607L27.7446 7.52191C27.9479 7.01374 28.5577 6.81048 29.0659 7.01374C29.5741 7.21701 29.7773 7.82681 29.5741 8.33498L25.6103 16.9738C25.5087 17.3804 25.1022 17.5836 24.7973 17.5836Z" fill="#D43157"/>
<path fill-rule="evenodd" clip-rule="evenodd" d="M27.9496 17.7852C27.848 17.7852 27.6447 17.7852 27.5431 17.6836C27.0349 17.4803 26.8317 16.8705 27.0349 16.3624L30.4905 8.63824C30.6937 8.2317 31.2019 7.9268 31.7101 8.13007C32.2182 8.33334 32.4215 8.94314 32.2182 9.4513L28.8643 17.1754C28.6611 17.582 28.2545 17.7852 27.9496 17.7852Z" fill="#D43157"/>
<path fill-rule="evenodd" clip-rule="evenodd" d="M30.6918 18.5989C30.5902 18.5989 30.3869 18.5989 30.2853 18.4973C29.7771 18.294 29.5738 17.6842 29.7771 17.176L32.9277 10.0617C33.131 9.55354 33.7408 9.35027 34.249 9.55354C34.7571 9.75681 34.9604 10.3666 34.7571 10.8748L31.6065 17.9891C31.4032 18.3956 31.0983 18.5989 30.6918 18.5989Z" fill="#D43157"/>
<path fill-rule="evenodd" clip-rule="evenodd" d="M43.0945 25.915C42.7896 25.915 42.5864 25.8134 42.2815 25.6101C41.8749 25.2036 41.8749 24.4922 42.2815 23.984L47.9729 17.9876C48.3795 17.5811 49.0909 17.4795 49.4974 17.9876C49.904 18.3942 49.904 19.1056 49.4974 19.6138L43.9076 25.5085C43.7043 25.8134 43.3994 25.915 43.0945 25.915Z" fill="#FFC843"/>
<path fill-rule="evenodd" clip-rule="evenodd" d="M14.1276 26.3234C13.8227 26.3234 13.5178 26.2218 13.2129 25.9169L5.99694 16.6682C5.59041 16.1601 5.69204 15.4486 6.20021 15.1437C6.70838 14.7372 7.41981 14.8388 7.72471 15.347L14.9407 24.5956C15.3472 25.1038 15.2456 25.8152 14.7374 26.1201C14.6358 26.2218 14.4325 26.3234 14.1276 26.3234Z" fill="#FFC843"/>
<path fill-rule="evenodd" clip-rule="evenodd" d="M24.2916 36.892C23.9867 36.4854 23.3769 36.2822 22.9704 36.6887C22.5639 36.9936 22.4622 37.6034 22.7671 38.1116L29.4749 47.8684L31.2027 46.9537L24.2916 36.892Z" fill="#FFC843"/>
<path fill-rule="evenodd" clip-rule="evenodd" d="M30.9973 48.6819C31.0989 48.6819 31.0989 48.6819 30.9973 48.6819C31.5055 48.2753 31.6071 47.6655 31.3022 47.259L30.9973 46.8525L29.2695 47.7672L29.6761 48.377C30.0826 48.7835 30.5908 48.8851 30.9973 48.6819Z" fill="#561B00"/>
<path fill-rule="evenodd" clip-rule="evenodd" d="M27.7448 36.9945C27.4399 36.588 26.8301 36.3847 26.4235 36.7912C26.017 37.0961 25.9154 37.7059 26.2203 38.2141L32.9281 47.9709L34.6558 47.0562L27.7448 36.9945Z" fill="#FFC843"/>
<path fill-rule="evenodd" clip-rule="evenodd" d="M34.5559 48.7844C35.0641 48.3779 35.1657 47.7681 34.8608 47.3615L34.5559 46.955L32.8281 47.8697L33.2347 48.4795C33.5396 48.8861 34.0477 48.9877 34.5559 48.7844Z" fill="#561B00"/>
<path fill-rule="evenodd" clip-rule="evenodd" d="M40.0449 39.6363C40.3498 39.433 40.553 39.2298 40.7563 38.9249H14.9414C15.1447 39.1281 15.4496 39.3314 15.6528 39.6363C19.0067 42.482 23.0721 43.9049 27.8488 43.9049C32.6256 43.9049 36.691 42.482 40.0449 39.6363Z" fill="#009EC3"/>
<path fill-rule="evenodd" clip-rule="evenodd" d="M27.848 14.6357C23.0712 14.6357 19.0059 16.0586 15.652 18.9043C12.2981 21.7501 10.5703 25.2056 10.5703 29.271C10.5703 32.2183 11.485 34.8608 13.3144 37.1984C13.7209 37.8082 14.3307 38.3163 14.8389 38.9261H40.6538C41.0603 38.6212 41.3652 38.2147 41.6701 37.8082C43.8044 35.369 44.9224 32.5232 44.9224 29.271C44.9224 25.2056 43.1946 21.7501 39.8407 18.9043C36.6901 16.0586 32.6248 14.6357 27.848 14.6357Z" fill="#FFC843"/>
<path fill-rule="evenodd" clip-rule="evenodd" d="M18.2935 16.1583C15.8543 16.0567 13.72 16.9714 11.789 18.9024C9.95957 20.8335 8.94324 23.171 8.73997 25.9151C8.63834 28.6592 9.34977 30.9968 10.9759 33.0295C12.602 35.0621 14.6347 36.0785 17.1755 36.0785C19.6147 36.1801 21.749 35.2654 23.6801 33.3344C25.5095 31.4033 26.5258 29.0658 26.7291 26.3217C26.9323 23.5776 26.1193 21.24 24.4931 19.2073C22.7654 17.2763 20.7327 16.26 18.2935 16.1583Z" fill="white"/>
<path fill-rule="evenodd" clip-rule="evenodd" d="M18.0923 17.2769C15.958 17.2769 14.2303 18.09 12.6041 19.7161C10.8764 21.4439 10.0633 23.4765 9.86003 26.0174C9.7584 28.5582 10.3682 30.5909 11.7911 32.4203C13.2139 34.1481 14.9417 35.0627 17.1776 35.0627C19.3119 35.1644 21.243 34.3513 22.8691 32.6235C24.5969 30.8958 25.4099 28.8631 25.6132 26.3223C25.7148 23.7814 25.105 21.7488 23.6822 19.9194C22.2593 18.1916 20.5315 17.2769 18.2956 17.2769C18.194 17.2769 18.0923 17.2769 18.0923 17.2769ZM17.4825 37.197C17.3809 37.197 17.2793 37.197 17.1776 37.197C14.4335 37.0954 12.096 35.9775 10.2666 33.7415C8.43717 31.5056 7.6241 28.8631 7.82737 25.9157C8.03063 22.8667 9.1486 20.3259 11.1813 18.2932C13.2139 16.1589 15.6531 15.1426 18.3972 15.2442C21.1413 15.3459 23.4789 16.4638 25.3083 18.6998C27.1377 20.9357 27.9508 23.5782 27.7475 26.5255C27.5442 29.5745 26.4263 32.1154 24.3936 34.148C22.4626 36.1807 20.125 37.197 17.4825 37.197Z" fill="#336697"/>
<path fill-rule="evenodd" clip-rule="evenodd" d="M21.4454 23.7821C20.734 23.8837 20.1242 24.2902 19.7177 24.7984C19.3111 25.4082 19.1079 26.1196 19.2095 26.8311C19.3111 27.5425 19.616 28.1523 20.2258 28.6605C20.8356 29.067 21.4454 29.2703 22.2585 29.1687C22.9699 29.067 23.5797 28.6605 23.9863 28.0507C24.3928 27.4409 24.5961 26.7294 24.4944 26.018C24.3928 25.3066 23.9863 24.6968 23.4781 24.1886C22.8683 23.7821 22.2585 23.6804 21.4454 23.7821Z" fill="#333132"/>
<path fill-rule="evenodd" clip-rule="evenodd" d="M21.9499 34.0466C20.832 34.0466 19.8156 33.1319 19.8156 31.9123C19.714 30.6927 20.7303 29.6764 21.8483 29.5748L33.7394 29.0666C34.959 28.965 35.9753 29.9813 35.9753 31.2009C36.077 32.4205 35.0606 33.4368 33.9427 33.5385L22.0516 34.0466C22.0516 34.0466 22.0516 34.0466 21.9499 34.0466Z" fill="#F58F02"/>
<path fill-rule="evenodd" clip-rule="evenodd" d="M36.4849 16.4643C34.0457 16.3627 31.9114 17.2774 29.9804 19.2084C28.151 21.1395 27.1346 23.477 26.9314 26.2212C26.8297 28.9653 27.5412 31.3028 29.1673 33.3355C30.7934 35.3682 32.8261 36.3845 35.367 36.3845C37.8062 36.4861 39.9405 35.5714 41.8715 33.6404C43.7009 31.7094 44.7172 29.3718 44.9205 26.6277C45.0221 23.8836 44.3107 21.546 42.6846 19.5134C40.9568 17.5823 38.9241 16.566 36.4849 16.4643Z" fill="white"/>
<path fill-rule="evenodd" clip-rule="evenodd" d="M36.2838 17.5835C34.1495 17.5835 32.4217 18.3965 30.7956 20.0227C29.0678 21.7505 28.2548 23.7831 28.0515 26.324C27.9499 28.8648 28.5597 30.8975 29.9825 32.7269C31.4054 34.4546 33.1332 35.3693 35.3691 35.3693C37.5034 35.471 39.4345 34.6579 41.0606 32.9301C42.7884 31.2024 43.6014 29.1697 43.8047 26.6289C43.9063 24.088 43.2965 22.0554 41.8737 20.2259C40.4508 18.4982 38.723 17.5835 36.4871 17.5835C36.3854 17.5835 36.2838 17.5835 36.2838 17.5835ZM35.5724 37.5036C35.4707 37.5036 35.3691 37.5036 35.2675 37.5036C32.5234 37.402 30.1858 36.284 28.3564 34.0481C26.527 31.8122 25.7139 29.1697 25.9172 26.2223C26.1205 23.1733 27.2384 20.6325 29.2711 18.5998C31.3038 16.4655 33.743 15.4492 36.4871 15.5508C39.2312 15.6524 41.5688 16.7704 43.3982 19.0063C45.2276 21.2423 46.0406 23.8848 45.8374 26.8321C45.6341 29.8811 44.5161 32.422 42.4834 34.4546C40.654 36.4873 38.3165 37.5036 35.5724 37.5036Z" fill="#336697"/>
<path fill-rule="evenodd" clip-rule="evenodd" d="M22.6652 31.0998C23.0717 31.5063 23.0717 32.1161 22.6652 32.421C22.2587 32.8275 21.7505 32.8275 21.344 32.421C20.9374 32.0145 20.9374 31.4047 21.344 31.0998C21.7505 30.7949 22.2587 30.7949 22.6652 31.0998Z" fill="#333132"/>
<path fill-rule="evenodd" clip-rule="evenodd" d="M37.0954 28.356L29.6762 28.2544C29.3713 28.2544 29.0664 28.0511 29.0664 27.7462C29.0664 27.4413 29.168 27.1364 29.4729 27.0348L36.1807 24.7988C36.4856 24.6972 36.8922 24.9005 36.9938 25.2054C37.0954 25.5103 36.8922 25.9168 36.5873 26.0184L33.5383 27.0348L37.1971 27.1364C37.502 27.1364 37.8069 27.4413 37.8069 27.7462C37.7052 28.0511 37.4003 28.356 37.0954 28.356Z" fill="#333132"/>
</svg>
